<svg height="734" width="720" xmlns="http://www.w3.org/2000/svg">
<rect height="734" fill="#555" width="720"></rect>
<text fill="#7f7" font-family="Courier New" font-size="12" xml:space="preserve">
<tspan x="10" y="26">3 megabytes installed</tspan>
<tspan x="10" y="42"></tspan>
<tspan x="10" y="58">node_modules</tspan>
<tspan x="10" y="74">└─┬ react-native-cli@2.0.1 </tspan>
<tspan x="10" y="90">  ├─┬ chalk@1.1.3 </tspan>
<tspan x="10" y="106">  │ ├── ansi-styles@2.2.1 </tspan>
<tspan x="10" y="122">  │ ├── escape-string-regexp@1.0.5 </tspan>
<tspan x="10" y="138">  │ ├─┬ has-ansi@2.0.0 </tspan>
<tspan x="10" y="154">  │ │ └── ansi-regex@2.1.1 </tspan>
<tspan x="10" y="170">  │ ├── strip-ansi@3.0.1 </tspan>
<tspan x="10" y="186">  │ └── supports-color@2.0.0 </tspan>
<tspan x="10" y="202">  ├── minimist@1.2.0 </tspan>
<tspan x="10" y="218">  ├─┬ prompt@0.2.14 </tspan>
<tspan x="10" y="234">  │ ├── pkginfo@0.4.0 </tspan>
<tspan x="10" y="250">  │ ├─┬ read@1.0.7 </tspan>
<tspan x="10" y="266">  │ │ └── mute-stream@0.0.7 </tspan>
<tspan x="10" y="282">  │ ├── revalidator@0.1.8 </tspan>
<tspan x="10" y="298">  │ ├─┬ utile@0.2.1 </tspan>
<tspan x="10" y="314">  │ │ ├── async@0.2.10 </tspan>
<tspan x="10" y="330">  │ │ ├── deep-equal@1.0.1 </tspan>
<tspan x="10" y="346">  │ │ ├── i@0.3.5 </tspan>
<tspan x="10" y="362">  │ │ ├─┬ mkdirp@0.5.1 </tspan>
<tspan x="10" y="378">  │ │ │ └── minimist@0.0.8 </tspan>
<tspan x="10" y="394">  │ │ ├── ncp@0.4.2 </tspan>
<tspan x="10" y="410">  │ │ └─┬ rimraf@2.6.1 </tspan>
<tspan x="10" y="426">  │ │   └─┬ glob@7.1.1 </tspan>
<tspan x="10" y="442">  │ │     ├── fs.realpath@1.0.0 </tspan>
<tspan x="10" y="458">  │ │     ├─┬ inflight@1.0.6 </tspan>
<tspan x="10" y="474">  │ │     │ └── wrappy@1.0.2 </tspan>
<tspan x="10" y="490">  │ │     ├── inherits@2.0.3 </tspan>
<tspan x="10" y="506">  │ │     ├─┬ minimatch@3.0.3 </tspan>
<tspan x="10" y="522">  │ │     │ └─┬ brace-expansion@1.1.7 </tspan>
<tspan x="10" y="538">  │ │     │   ├── balanced-match@0.4.2 </tspan>
<tspan x="10" y="554">  │ │     │   └── concat-map@0.0.1 </tspan>
<tspan x="10" y="570">  │ │     ├── once@1.4.0 </tspan>
<tspan x="10" y="586">  │ │     └── path-is-absolute@1.0.1 </tspan>
<tspan x="10" y="602">  │ └─┬ winston@0.8.3 </tspan>
<tspan x="10" y="618">  │   ├── colors@0.6.2 </tspan>
<tspan x="10" y="634">  │   ├── cycle@1.0.3 </tspan>
<tspan x="10" y="650">  │   ├── eyes@0.1.8 </tspan>
<tspan x="10" y="666">  │   ├── isstream@0.1.2 </tspan>
<tspan x="10" y="682">  │   ├── pkginfo@0.3.1 </tspan>
<tspan x="10" y="698">  │   └── stack-trace@0.0.9 </tspan>
<tspan x="10" y="714">  └── semver@5.3.0</tspan>
</text>
</svg>
